# xmcd CD database file
#
# Track frame offsets:
#	150
#	12831
#	30128
#	59405
#	71181
#	82958
#	98678
#	121458
#	150849
#	162691
#	211277
#	261322
#
# Disc length: 4221 seconds
#
# Revision: 0
# Processed by: cddbd v1.5.1PL2 Copyright (c) Steve Scherf et al.
# Submitted via: CDex 1.50
#
DISCID=96107b0c
DTITLE=Buddy Rich - Argo, Emarcy and Verve Small Group Sessions Disc 1
DYEAR=2006
DGENRE=Jazz
TTITLE0=Let's Fall In Love
TTITLE1=Me And My Jaguar
TTITLE2=Just Blues
TTITLE3=Sweets' Opus No 1 alt take
TTITLE4=Sweet's Opus No 1
TTITLE5=Bonbo, Bass and Guitar
TTITLE6=Srike It Rich alt take
TTITLE7=Strike It Rich
TTITLE8=Sprotin' Live aka Sweetie Pie
TTITLE9=Sunday
TTITLE10=The Monster
TTITLE11=Ballad Medley
EXTD=YEAR: 2006
EXTT0=
EXTT1=
EXTT2=
EXTT3=
EXTT4=
EXTT5=
EXTT6=
EXTT7=
EXTT8=
EXTT9=
EXTT10=
EXTT11=
PLAYORDER=
